HIERARCHY
ROOT joint_Root
{
	OFFSET 0.0 0.0 0.0
	CHANNELS 6 Xposition Yposition Zposition Zrotation Xrotation Yrotation 
	JOINT Hips
	{
		OFFSET -0.726466 93.3139 -2.00062
		CHANNELS 6 Xposition Yposition Zposition Zrotation Xrotation Yrotation 
		JOINT Spine
		{
			OFFSET 15.7357 0.0 0.0
			CHANNELS 6 Xposition Yposition Zposition Zrotation Xrotation Yrotation 
			JOINT Chest
			{
				OFFSET 8.98455 -0.406207 0.0
				CHANNELS 6 Xposition Yposition Zposition Zrotation Xrotation Yrotation 
				JOINT Neck
				{
					OFFSET 16.3773 0.0 0.0
					CHANNELS 6 Xposition Yposition Zposition Zrotation Xrotation Yrotation 
					JOINT Head
					{
						OFFSET 6.45672 0.0 0.0
						CHANNELS 6 Xposition Yposition Zposition Zrotation Xrotation Yrotation 
						End Site
						{
							OFFSET 0.0 0.0 0.0
						}
					}
				}
				JOINT Shoulder_L
				{
					OFFSET 12.9942 -0.242716 4.98039
					CHANNELS 6 Xposition Yposition Zposition Zrotation Xrotation Yrotation 
					JOINT UpperArm_L
					{
						OFFSET 5.34809 0.0 0.0
						CHANNELS 6 Xposition Yposition Zposition Zrotation Xrotation Yrotation 
						JOINT LowerArm_L
						{
							OFFSET 24.3286 1.87007e-05 0.0
							CHANNELS 6 Xposition Yposition Zposition Zrotation Xrotation Yrotation 
							JOINT Hand_L
							{
								OFFSET 22.2916 0.0 0.0
								CHANNELS 6 Xposition Yposition Zposition Zrotation Xrotation Yrotation 
								End Site
								{
									OFFSET 0.0 0.0 0.0
								}
							}
						}
					}
				}
				JOINT Shoulder_R
				{
					OFFSET 12.9945 -0.242716 -4.98039
					CHANNELS 6 Xposition Yposition Zposition Zrotation Xrotation Yrotation 
					JOINT UpperArm_R
					{
						OFFSET -5.34813 0.0 0.0
						CHANNELS 6 Xposition Yposition Zposition Zrotation Xrotation Yrotation 
						JOINT LowerArm_R
						{
							OFFSET -24.3289 0.000322201 0.0
							CHANNELS 6 Xposition Yposition Zposition Zrotation Xrotation Yrotation 
							JOINT Hand_R
							{
								OFFSET -22.2915 -0.000108084 0.0
								CHANNELS 6 Xposition Yposition Zposition Zrotation Xrotation Yrotation 
								End Site
								{
									OFFSET 0.0 0.0 0.0
								}
							}
						}
					}
				}
			}
		}
		JOINT UpperLeg_L
		{
			OFFSET -2.19248 -6.46944 0.0
			CHANNELS 6 Xposition Yposition Zposition Zrotation Xrotation Yrotation 
			JOINT LowerLeg_L
			{
				OFFSET 39.0811 0.0 -1.23785e-05
				CHANNELS 6 Xposition Yposition Zposition Zrotation Xrotation Yrotation 
				JOINT Foot_L
				{
					OFFSET 40.9854 0.0 -1.26872e-05
					CHANNELS 6 Xposition Yposition Zposition Zrotation Xrotation Yrotation 
					JOINT Toes_L
					{
						OFFSET 11.7543 0.0 0.0
						CHANNELS 6 Xposition Yposition Zposition Zrotation Xrotation Yrotation 
						End Site
						{
							OFFSET 0.0 0.0 0.0
						}
					}
				}
			}
		}
		JOINT UpperLeg_R
		{
			OFFSET -2.19251 6.46944 0.0
			CHANNELS 6 Xposition Yposition Zposition Zrotation Xrotation Yrotation 
			JOINT LowerLeg_R
			{
				OFFSET -39.0811 -0.00228153 -0.0401928
				CHANNELS 6 Xposition Yposition Zposition Zrotation Xrotation Yrotation 
				JOINT Foot_R
				{
					OFFSET -40.9854 0.0 0.0
					CHANNELS 6 Xposition Yposition Zposition Zrotation Xrotation Yrotation 
					JOINT Toes_R
					{
						OFFSET -11.7543 0.0 0.0
						CHANNELS 6 Xposition Yposition Zposition Zrotation Xrotation Yrotation 
						End Site
						{
							OFFSET 0.0 0.0 0.0
						}
					}
				}
			}
		}
	}
}
MOTION
Frames:	7
Frame Time:	0.0333333
0.000000 0.000000 0.000000 0.000000 0.000000 -0.000000 1.507990 91.864600 -1.423560 87.454800 -5.723850 6.601930 15.735700 0.000005 -0.000001 101.664000 84.862600 -103.764000 8.984550 -0.406207 -0.000000 2.341570 2.175000 -4.242120 16.377300 -0.000001 -0.000001 2.258710 -2.597140 1.334370 6.456720 -0.000001 -0.000000 -2.787230 -2.255570 -12.158500 12.994200 -0.242716 4.980390 -88.766500 -3.446700 -70.295100 5.348090 -0.000007 -0.000001 0.521747 75.174500 -49.338300 24.328600 0.000019 0.000005 9.511400 0.686109 -85.912100 22.291600 -0.000001 0.000005 35.773900 5.439910 -37.958100 12.994500 -0.242716 -4.980390 92.292100 -5.044530 -65.524400 -5.348130 -0.000001 -0.000004 -49.016600 -46.208300 -107.833000 -24.328900 0.000322 -0.000009 -1.704340 -1.426120 -50.069600 -22.291500 -0.000108 -0.000004 18.191500 5.543140 -8.387070 -2.192480 -6.469440 -0.000000 -169.039000 -18.807800 -0.403144 39.081100 -0.000007 -0.000012 -0.203336 0.435810 25.012600 40.985400 -0.000006 -0.000013 -6.322850 -5.199250 -65.737400 11.754300 -0.000000 0.000003 -0.000124 -0.001240 -16.624900 -2.192510 6.469440 -0.000001 172.513000 19.238700 -179.367000 -39.081100 -0.002282 -0.040193 0.038189 -0.090729 21.022900 -40.985400 0.000008 0.000006 -1.971120 2.791070 -62.208900 -11.754300 -0.000006 -0.000006 -0.004395 -0.055484 -18.830300
0.000000 0.000000 0.000000 0.000000 0.000000 -0.000000 1.537230 91.858300 -1.466050 87.463600 -5.816120 6.546720 15.735700 0.000005 -0.000001 101.596000 84.901800 -103.722000 8.984550 -0.406207 -0.000000 2.267220 2.150030 -4.289490 16.377300 -0.000001 -0.000001 2.232930 -2.459270 1.191100 6.456720 -0.000001 -0.000000 -2.831520 -2.084220 -12.254100 12.994200 -0.242716 4.980390 -88.782000 -3.386100 -70.203000 5.348090 -0.000007 -0.000001 0.369410 75.173300 -49.114500 24.328600 0.000019 0.000005 9.489250 0.683483 -85.918000 22.291600 -0.000001 0.000005 35.876600 5.439090 -37.987300 12.994500 -0.242716 -4.980390 92.248200 -4.955000 -65.556600 -5.348130 -0.000001 -0.000004 -49.206100 -46.592400 -105.699000 -24.328900 0.000322 -0.000009 -1.615190 -1.430000 -48.468900 -22.291500 -0.000108 -0.000004 18.294900 5.537690 -8.138050 -2.192480 -6.469440 -0.000000 -169.074000 -18.886400 -0.492165 39.081100 -0.000007 -0.000012 -0.205336 0.438934 25.070800 40.985400 -0.000006 -0.000013 -6.306230 -5.206140 -65.757400 11.754300 -0.000000 0.000003 -0.000125 -0.001242 -16.625000 -2.192510 6.469440 -0.000001 172.520000 19.167400 -179.450000 -39.081100 -0.002282 -0.040193 0.037777 -0.089826 20.986800 -40.985400 0.000008 0.000006 -1.975910 2.857720 -62.229100 -11.754300 -0.000006 -0.000006 -0.004398 -0.055519 -18.831700
0.000000 0.000000 0.000000 0.000000 0.000000 -0.000000 1.566130 91.863300 -1.490620 87.461100 -5.923720 6.545430 15.735700 0.000005 -0.000001 101.551000 84.916600 -103.691000 8.984550 -0.406207 -0.000000 2.239920 2.137470 -4.318170 16.377300 -0.000001 -0.000001 2.107600 -2.325820 1.025770 6.456720 -0.000001 -0.000000 -2.772620 -1.991210 -12.354300 12.994200 -0.242716 4.980390 -88.818700 -3.278960 -70.175200 5.348090 -0.000007 -0.000001 0.250861 75.175300 -48.851700 24.328600 0.000019 0.000005 9.540990 0.672716 -86.004200 22.291600 -0.000001 0.000005 35.860600 5.440840 -37.925900 12.994500 -0.242716 -4.980390 92.154200 -4.744890 -65.546700 -5.348130 -0.000001 -0.000004 -49.630000 -46.756800 -103.482000 -24.328900 0.000322 -0.000009 -1.324600 -1.242290 -46.819200 -22.291500 -0.000108 -0.000004 18.688900 5.535560 -8.042520 -2.192480 -6.469440 -0.000000 -169.087000 -18.948500 -0.481065 39.081100 -0.000007 -0.000012 -0.204272 0.436859 25.060800 40.985400 -0.000006 -0.000013 -6.292870 -5.251870 -65.754800 11.754300 -0.000000 0.000003 -0.000119 -0.001193 -16.623100 -2.192510 6.469440 -0.000001 172.523000 19.061000 -179.460000 -39.081100 -0.002282 -0.040193 0.036391 -0.086493 20.924600 -40.985400 0.000008 0.000006 -2.073080 2.876610 -62.156700 -11.754300 -0.000006 -0.000006 -0.004500 -0.056544 -18.873400
0.000000 0.000000 0.000000 0.000000 0.000000 -0.000000 1.587880 91.857300 -1.505430 87.474300 -6.056640 6.573750 15.735700 0.000005 -0.000001 101.157000 84.928600 -103.328000 8.984550 -0.406207 -0.000000 2.229300 2.065960 -4.379430 16.377300 -0.000001 -0.000001 2.112670 -2.174990 0.816964 6.456720 -0.000001 -0.000000 -2.873800 -1.829410 -12.311000 12.994200 -0.242716 4.980390 -88.826500 -3.234270 -70.044900 5.348090 -0.000007 -0.000001 0.280688 75.135600 -48.796300 24.328600 0.000019 0.000005 9.515310 0.659222 -86.073400 22.291600 -0.000001 0.000005 35.766300 5.439190 -37.983600 12.994500 -0.242716 -4.980390 92.034200 -4.484650 -65.570100 -5.348130 -0.000001 -0.000004 -50.662400 -46.527100 -101.394000 -24.328900 0.000322 -0.000009 -1.357780 -1.345290 -45.248100 -22.291500 -0.000108 -0.000004 18.803300 5.534050 -7.974950 -2.192480 -6.469440 -0.000000 -169.109000 -18.958600 -0.458637 39.081100 -0.000007 -0.000012 -0.204309 0.436135 25.101200 40.985400 -0.000006 -0.000013 -6.303910 -5.354920 -65.789900 11.754300 -0.000000 0.000003 -0.000130 -0.001290 -16.626800 -2.192510 6.469440 -0.000001 172.500000 18.995100 -179.450000 -39.081100 -0.002282 -0.040193 0.036343 -0.086452 20.906000 -40.985400 0.000008 0.000006 -2.053260 2.954190 -62.190500 -11.754300 -0.000006 -0.000006 -0.004574 -0.057282 -18.903500
0.000000 0.000000 0.000000 0.000000 0.000000 -0.000000 1.606310 91.849800 -1.515930 87.490000 -6.239890 6.622210 15.735700 0.000005 -0.000001 100.558000 84.931600 -102.750000 8.984550 -0.406207 -0.000000 2.241660 1.961680 -4.417990 16.377300 -0.000001 -0.000001 2.066440 -2.013960 0.623121 6.456720 -0.000001 -0.000000 -2.928540 -1.654400 -12.350200 12.994200 -0.242716 4.980390 -88.843400 -3.176290 -69.978900 5.348090 -0.000007 -0.000001 -0.056448 75.181100 -48.375600 24.328600 0.000019 0.000005 9.603160 0.652731 -86.148100 22.291600 -0.000001 0.000005 35.906300 5.441750 -37.893500 12.994500 -0.242716 -4.980390 91.912800 -4.248750 -65.735100 -5.348130 -0.000001 -0.000004 -51.910800 -46.173600 -99.156300 -24.328900 0.000322 -0.000009 -1.378770 -1.439190 -43.756400 -22.291500 -0.000108 -0.000004 19.071600 5.532380 -7.901700 -2.192480 -6.469440 -0.000000 -169.110000 -19.031500 -0.395000 39.081100 -0.000007 -0.000012 -0.205190 0.437221 25.141200 40.985400 -0.000006 -0.000013 -6.321440 -5.464770 -65.831300 11.754300 -0.000000 0.000003 -0.000116 -0.001167 -16.622200 -2.192510 6.469440 -0.000001 172.466000 18.871300 -179.432000 -39.081100 -0.002282 -0.040193 0.034791 -0.082459 20.889600 -40.985400 0.000008 0.000006 -2.129780 3.033250 -62.197900 -11.754300 -0.000006 -0.000006 -0.004390 -0.055441 -18.828500
0.000000 0.000000 0.000000 0.000000 0.000000 -0.000000 1.623210 91.841200 -1.535580 87.508500 -6.381080 6.643680 15.735700 0.000005 -0.000001 99.874200 84.937600 -102.082000 8.984550 -0.406207 -0.000000 2.249110 1.841190 -4.447770 16.377300 -0.000001 -0.000001 1.980860 -1.884380 0.398183 6.456720 -0.000001 -0.000000 -2.924440 -1.560170 -12.369100 12.994200 -0.242716 4.980390 -88.862700 -3.116280 -69.939200 5.348090 -0.000007 -0.000001 -0.089749 75.231400 -48.296200 24.328600 0.000019 0.000005 9.508900 0.646649 -86.145400 22.291600 -0.000001 0.000005 35.885600 5.438370 -38.012400 12.994500 -0.242716 -4.980390 91.778100 -3.980190 -65.903800 -5.348130 -0.000001 -0.000004 -52.860800 -45.886600 -96.515300 -24.328900 0.000322 -0.000009 -1.310670 -1.441310 -42.263500 -22.291500 -0.000108 -0.000004 19.533100 5.529140 -7.759500 -2.192480 -6.469440 -0.000000 -169.121000 -19.117800 -0.378541 39.081100 -0.000007 -0.000012 -0.204500 0.434735 25.192700 40.985400 -0.000006 -0.000013 -6.328390 -5.528320 -65.864400 11.754300 -0.000000 0.000003 -0.000124 -0.001238 -16.624800 -2.192510 6.469440 -0.000001 172.437000 18.830800 -179.473000 -39.081100 -0.002282 -0.040193 0.035359 -0.083702 20.946000 -40.985400 0.000008 0.000006 -2.104430 3.174260 -62.226600 -11.754300 -0.000006 -0.000006 -0.004753 -0.059058 -18.975900
0.000000 0.000000 0.000000 0.000000 0.000000 -0.000000 1.633430 91.840200 -1.554870 87.533800 -6.563090 6.712920 15.735700 0.000005 -0.000001 99.128100 84.915700 -101.344000 8.984550 -0.406207 -0.000000 2.311790 1.717330 -4.461720 16.377300 -0.000001 -0.000001 1.883710 -1.769840 0.198355 6.456720 -0.000001 -0.000000 -3.005970 -1.452580 -12.483100 12.994200 -0.242716 4.980390 -88.883500 -3.053650 -69.904500 5.348090 -0.000007 -0.000001 -0.047017 75.301200 -48.305100 24.328600 0.000019 0.000005 9.502660 0.642267 -86.168900 22.291600 -0.000001 0.000005 35.963600 5.438640 -38.003300 12.994500 -0.242716 -4.980390 91.639600 -3.706280 -66.115600 -5.348130 -0.000001 -0.000004 -53.408300 -45.699700 -93.470900 -24.328900 0.000322 -0.000009 -1.216870 -1.412200 -40.732200 -22.291500 -0.000108 -0.000004 19.760300 5.527080 -7.667340 -2.192480 -6.469440 -0.000000 -169.126000 -19.190000 -0.273579 39.081100 -0.000007 -0.000012 -0.202472 0.430581 25.184600 40.985400 -0.000006 -0.000013 -6.338950 -5.621880 -65.878000 11.754300 -0.000000 0.000003 -0.000117 -0.001174 -16.622400 -2.192510 6.469440 -0.000001 172.385000 18.812100 -179.471000 -39.081100 -0.002282 -0.040193 0.034452 -0.081160 20.986500 -40.985400 0.000008 0.000006 -2.118570 3.314080 -62.193700 -11.754300 -0.000006 -0.000006 -0.004682 -0.058356 -18.947300
